<svg width="91" height="91" viewBox="0 0 91 91" fill="none" xmlns="http://www.w3.org/2000/svg">
<g clip-path="url(#clip0_1_385)">
<path d="M35.9734 33.1652C40.8256 33.1652 44.7713 29.2195 44.7713 24.3674C44.7713 19.5152 40.8256 15.5695 35.9734 15.5695C31.1213 15.5695 27.1756 19.5152 27.1756 24.3674C27.1756 29.2195 31.1213 33.1652 35.9734 33.1652ZM35.9734 22.6611C36.8977 22.6611 37.6619 23.4254 37.6619 24.3496C37.6619 25.2738 36.8977 26.0381 35.9734 26.0381C35.0492 26.0381 34.285 25.2738 34.285 24.3496C34.285 23.4254 35.0314 22.6611 35.9734 22.6611ZM47.1174 37.893C46.7441 36.2934 45.3045 35.1559 43.6516 35.1559H28.2598C26.6068 35.1559 25.185 36.2934 24.7939 37.893L21.4525 52.0051C20.9193 54.2268 22.6078 56.3773 24.9184 56.3773H46.993C49.2857 56.3773 50.9742 54.2445 50.4588 52.0051L47.1174 37.893ZM29.415 49.268L31.068 42.2652H40.8434L42.4963 49.268H29.415ZM89.9514 75.3772L76.4436 61.8693C75.0572 60.483 72.8 60.483 71.4137 61.8693L69.1564 64.1266L63.7711 58.7412C68.8721 52.5383 71.9291 44.5936 71.9291 35.9557C71.9291 16.1383 55.8086 0 35.9734 0C16.1383 0 0 16.1383 0 35.9734C0 55.8086 16.1383 71.9469 35.9734 71.9469C44.6113 71.9469 52.5561 68.8898 58.759 63.7889L64.1443 69.1742L61.8871 71.4314C60.5008 72.8178 60.5008 75.075 61.8871 76.4613L75.3949 89.9691C76.7812 91.3555 79.0385 91.3555 80.4248 89.9691L89.9691 80.4248C91.3555 79.0207 91.3555 76.7635 89.9514 75.3772ZM7.10938 35.9734C7.10938 20.0484 20.0484 7.10938 35.9734 7.10938C51.8984 7.10938 64.8375 20.0484 64.8375 35.9734C64.8375 51.8984 51.8984 64.8375 35.9734 64.8375C20.0484 64.8375 7.10938 51.8807 7.10938 35.9734ZM77.901 82.4154L69.4053 73.9375L73.9375 69.4053L82.4154 77.8832L77.901 82.4154Z" fill="#2183AA"/>
</g>
<defs>
<clipPath id="clip0_1_385">
<rect width="91" height="91" rx="10" fill="white"/>
</clipPath>
</defs>
</svg>
