<svg width="92" height="92" viewBox="0 0 92 92" fill="none" xmlns="http://www.w3.org/2000/svg">
<path d="M88.4062 13.6562H60.9011V3.59375C60.9011 1.60892 59.2922 0 57.3074 0H34.6926C32.7078 0 31.0989 1.60892 31.0989 3.59375V13.6562H3.59375C1.60892 13.6562 0 15.2652 0 17.25V88.4062C0 90.3911 1.60892 92 3.59375 92H88.4062C90.3911 92 92 90.3911 92 88.4062V17.25C92 15.2652 90.3911 13.6562 88.4062 13.6562ZM38.2864 7.1875H53.7134V13.6562H38.2864V7.1875ZM84.8125 84.8125H7.1875V20.8438H84.8125V84.8125ZM31.625 48.875C37.3716 48.875 42.0469 44.1997 42.0469 38.4531C42.0469 32.7065 37.3716 28.0312 31.625 28.0312C25.8784 28.0312 21.2031 32.7065 21.2031 38.4531C21.2031 44.1997 25.8784 48.875 31.625 48.875ZM31.625 35.2188C33.4084 35.2188 34.8594 36.6697 34.8594 38.4531C34.8594 40.2365 33.4084 41.6875 31.625 41.6875C29.8416 41.6875 28.3906 40.2365 28.3906 38.4531C28.3906 36.6697 29.8416 35.2188 31.625 35.2188ZM45.1422 54.8336C44.7578 53.213 43.3108 52.0689 41.6453 52.0689H21.6047C19.9392 52.0689 18.4922 53.2132 18.1078 54.8336L13.7531 73.2022C13.2201 75.4511 14.9236 77.625 17.25 77.625H46C48.3113 77.625 50.0333 75.4659 49.4969 73.2022L45.1422 54.8336ZM21.7954 70.4375L24.4461 59.2564H38.8039L41.4546 70.4375H21.7954ZM57.3074 41.5745H74.75C76.7348 41.5745 78.3438 43.1834 78.3438 45.1682C78.3438 47.1531 76.7348 48.762 74.75 48.762H57.3074C55.3225 48.762 53.7136 47.1531 53.7136 45.1682C53.7136 43.1834 55.3225 41.5745 57.3074 41.5745ZM78.3438 60.488C78.3438 62.4729 76.7348 64.0818 74.75 64.0818H57.3074C55.3225 64.0818 53.7136 62.4729 53.7136 60.488C53.7136 58.5032 55.3225 56.8943 57.3074 56.8943H74.75C76.7348 56.8943 78.3438 58.5032 78.3438 60.488Z" fill="#2183AA"/>
</svg>
