<svg width="92" height="92" viewBox="0 0 92 92" fill="none" xmlns="http://www.w3.org/2000/svg">
<g clip-path="url(#clip0_1_331)">
<path d="M17.9688 63.6088H3.59375C1.61719 63.6088 0 65.226 0 67.2026V88.4057C0 90.3822 1.61719 91.9994 3.59375 91.9994H17.9688C19.9453 91.9994 21.5625 90.3822 21.5625 88.4057V67.2026C21.5625 65.226 19.9453 63.6088 17.9688 63.6088ZM14.375 84.8119H7.1875V70.7963H14.375V84.8119ZM48.282 42.4057H33.907C31.9305 42.4057 30.3133 44.0229 30.3133 45.9994V88.4057C30.3133 90.3822 31.9305 91.9994 33.907 91.9994H48.282C50.2586 91.9994 51.8758 90.3822 51.8758 88.4057V45.9994C51.8758 44.0229 50.2766 42.4057 48.282 42.4057ZM44.6883 84.8119H37.5008V49.5932H44.6883V84.8119ZM91.3352 24.3291L75.1453 1.5088C73.6719 -0.557607 70.6891 -0.467764 69.2875 1.5088L53.0977 24.3111C51.4086 26.683 53.1156 29.9893 56.0266 29.9893H61.4352V88.3877C61.4352 90.3643 63.0523 91.9815 65.0289 91.9815H79.4039C81.3805 91.9815 82.9977 90.3643 82.9977 88.3877V30.0072H88.4062C91.3172 30.0072 93.0242 26.701 91.3352 24.3291ZM79.4039 22.8197C77.4273 22.8197 75.8102 24.4369 75.8102 26.4135V84.8119H68.6227V26.4135C68.6227 24.4369 67.0055 22.8197 65.0289 22.8197H62.9805L72.2164 9.81036L81.4523 22.8197H79.4039Z" fill="#2183AA"/>
</g>
<defs>
<clipPath id="clip0_1_331">
<rect width="92" height="92" rx="10" fill="white"/>
</clipPath>
</defs>
</svg>
