<svg width="92" height="92" viewBox="0 0 92 92" fill="none" xmlns="http://www.w3.org/2000/svg">
<path d="M88.4062 20.4485H71.2102V10.368C71.2102 8.37352 69.593 6.7743 67.6164 6.7743H24.4016C22.407 6.7743 20.8078 8.39149 20.8078 10.368V20.4485H3.59375C1.59922 20.4485 0 22.0657 0 24.0423V81.6321C0 83.6266 1.61719 85.2259 3.59375 85.2259H88.4062C90.4008 85.2259 92 83.6087 92 81.6321C92 49.8095 92 25.6595 92 24.0423C92 22.0477 90.3828 20.4485 88.4062 20.4485ZM27.9953 13.9618H63.9867V20.4485H27.9953V13.9618ZM7.20547 27.636H84.8125V35.8477L46 49.0368L7.20547 35.8657V27.636ZM7.20547 78.0384V43.4665L44.85 56.2423C45.6047 56.4938 46.4133 56.4938 47.168 56.2423L84.8125 43.4665V78.0384H7.20547Z" fill="#2183AA"/>
</svg>
