<svg width="90" height="92" viewBox="0 0 90 92" fill="none" xmlns="http://www.w3.org/2000/svg">
<path d="M89.1808 49.6669C89.1808 38.9605 81.3637 30.0468 71.1376 28.33V3.59358C71.1376 1.60885 69.5286 0 67.5441 0H4.41292C2.42836 0 0.819336 1.60885 0.819336 3.59358V74.7465C0.819336 76.7312 2.42836 78.3401 4.41292 78.3401H54.434V88.4021C54.434 91.2137 57.5298 92.9397 59.9223 91.4556L67.5439 86.7262L75.1655 91.4556C77.5337 92.9253 80.6538 91.24 80.6538 88.4021V66.8672C85.8329 62.9103 89.1808 56.6728 89.1808 49.6669ZM8.0065 71.1529V7.18716H63.9505V28.33C59.0242 29.1571 54.6575 31.6537 51.4542 35.2171H20.1595C18.1747 35.2171 16.5659 36.8259 16.5659 38.8107C16.5659 40.7954 18.1747 42.4043 20.1595 42.4043H47.1623C46.3506 44.6754 45.9069 47.1201 45.9069 49.6669C45.9069 51.2978 46.0895 52.8867 46.4332 54.4154H20.1595C18.1747 54.4154 16.5659 56.0243 16.5659 58.009C16.5659 59.9938 18.1747 61.6026 20.1595 61.6026H49.5064C50.8458 63.6199 52.5139 65.4001 54.434 66.8672V71.1529H8.0065ZM73.4668 81.943L69.4388 79.4435C68.2782 78.7233 66.8097 78.7233 65.6492 79.4435L61.6211 81.943V70.4797C65.4774 71.5786 69.6093 71.5789 73.4668 70.4797V81.943ZM67.5441 64.1165C59.5764 64.1165 53.0943 57.6344 53.0943 49.6669C53.0943 41.6992 59.5764 35.2171 67.5441 35.2171C75.5116 35.2171 81.9937 41.6992 81.9937 49.6669C81.9937 57.6344 75.5116 64.1165 67.5441 64.1165ZM25.1747 19.6123C25.1747 17.6276 26.7835 16.0187 28.7682 16.0187H43.1886C45.1733 16.0187 46.7821 17.6276 46.7821 19.6123C46.7821 21.5971 45.1733 23.2059 43.1886 23.2059H28.7682C26.7837 23.2059 25.1747 21.5971 25.1747 19.6123Z" fill="#2183AA"/>
</svg>
